<svg width="244" height="200" viewBox="0 0 244 200" fill="none" xmlns="http://www.w3.org/2000/svg">
<path d="M241.697 192.468C241.677 192.452 239.557 190.828 239.594 186.438C239.614 183.906 238.782 181.656 237.247 180.103C235.872 178.71 234.01 177.94 232.005 177.93H231.992C229.988 177.94 228.126 178.71 226.75 180.104C225.216 181.657 224.382 183.906 224.404 186.438C224.441 190.768 222.384 192.405 222.302 192.468C222.042 192.661 221.936 192.998 222.037 193.306C222.139 193.614 222.427 193.821 222.749 193.821H227.669C227.771 196.131 229.666 197.981 231.999 197.981C234.332 197.981 236.225 196.131 236.326 193.821H241.248C241.57 193.821 241.858 193.615 241.958 193.307C242.061 193 241.955 192.662 241.695 192.469L241.697 192.468ZM232 196.478C230.495 196.478 229.27 195.301 229.172 193.82H234.828C234.728 195.3 233.505 196.48 232 196.48V196.478ZM224.38 192.32C225.12 191.188 225.928 189.292 225.904 186.424C225.886 184.264 226.548 182.442 227.817 181.157C228.91 180.05 230.397 179.437 232 179.43C233.603 179.438 235.087 180.05 236.18 181.158C237.45 182.443 238.113 184.264 238.095 186.425C238.071 189.293 238.88 191.19 239.62 192.321H224.38V192.32Z" fill="white"/>
<path d="M197.697 192.468C197.677 192.452 195.557 190.828 195.594 186.438C195.614 183.905 194.782 181.656 193.247 180.104C191.872 178.711 190.01 177.94 188.005 177.932H187.992C185.988 177.94 184.126 178.712 182.75 180.104C181.216 181.657 180.383 183.906 180.404 186.437C180.441 190.769 178.384 192.404 178.302 192.467C178.042 192.661 177.936 192.997 178.037 193.305C178.138 193.613 178.427 193.82 178.75 193.82H183.244C183.344 196.364 185.432 198.407 188 198.407C190.568 198.407 192.655 196.364 192.756 193.82H197.25C197.574 193.82 197.86 193.612 197.962 193.305C198.064 192.998 197.957 192.661 197.697 192.468ZM188 196.408C186.534 196.408 185.343 195.261 185.244 193.82H190.756C190.656 195.26 189.466 196.407 188 196.407V196.408Z" fill="white"/>
<path d="M152.585 185.468C153.245 185.468 153.785 184.93 153.785 184.268C153.785 183.606 153.245 183.068 152.585 183.068H149.365L149.675 179.521C149.702 179.203 149.605 178.891 149.398 178.646C149.192 178.401 148.903 178.25 148.576 178.221C147.926 178.186 147.341 178.653 147.283 179.314L146.957 183.068H141.9L142.208 179.523C142.268 178.865 141.778 178.281 141.111 178.221C140.446 178.171 139.876 178.651 139.818 179.313L139.493 183.067H136.163C135.5 183.067 134.963 183.605 134.963 184.267C134.963 184.929 135.501 185.467 136.163 185.467H139.285L138.845 190.531H135.416C134.754 190.531 134.216 191.071 134.216 191.731C134.216 192.391 134.754 192.933 135.416 192.933H138.636L138.326 196.481C138.269 197.138 138.758 197.721 139.416 197.781L139.522 197.786C140.148 197.786 140.662 197.314 140.717 196.688L141.044 192.935H146.1L145.792 196.479C145.732 197.137 146.222 197.721 146.882 197.781L146.988 197.786C147.605 197.786 148.13 197.304 148.183 196.688L148.508 192.935H151.838C152.498 192.935 153.038 192.395 153.038 191.735C153.038 191.075 152.498 190.533 151.838 190.533H148.716L149.156 185.469H152.586L152.585 185.468ZM146.747 185.468L146.307 190.531H141.253L141.693 185.469H146.748L146.747 185.468Z" fill="white"/>
<path d="M66.46 183.57L56.357 178.115C56.134 177.995 55.867 177.995 55.644 178.115L45.543 183.57C45.179 183.767 45.043 184.222 45.24 184.587C45.375 184.837 45.634 184.98 45.9 184.98C46.02 184.98 46.143 184.95 46.256 184.89L47.071 184.45L48.7 195.963C48.914 197.178 50.008 198.025 51.358 198.025H60.64C61.992 198.025 63.085 197.177 63.303 195.938L64.929 184.448L65.747 184.89C66.111 185.083 66.567 184.95 66.764 184.586C66.96 184.223 66.824 183.768 66.46 183.57ZM61.822 195.703C61.715 196.309 61.119 196.525 60.642 196.525H51.36C50.88 196.525 50.285 196.309 50.182 195.727L48.48 183.69L56 179.628L63.522 183.688L61.822 195.703Z" fill="white"/>
<path d="M52.22 188.184C52.22 190.268 53.915 191.964 56 191.964C58.085 191.964 59.78 190.268 59.78 188.184C59.78 186.1 58.085 184.404 56 184.404C53.915 184.404 52.22 186.1 52.22 188.184ZM58.28 188.184C58.28 189.442 57.258 190.464 56 190.464C54.742 190.464 53.72 189.442 53.72 188.184C53.72 186.926 54.742 185.904 56 185.904C57.258 185.904 58.28 186.926 58.28 188.184Z" fill="white"/>
<path d="M109 183.337H105.07L105.442 179.065C105.478 178.653 105.172 178.29 104.76 178.253C104.343 178.223 103.984 178.523 103.948 178.936L103.565 183.336H97.245L97.615 179.066C97.652 178.653 97.345 178.29 96.935 178.253C96.515 178.223 96.158 178.523 96.122 178.936L95.74 183.336H91.782C91.368 183.336 91.032 183.673 91.032 184.086C91.032 184.499 91.368 184.836 91.782 184.836H95.61L95.06 191.163H91C90.586 191.163 90.25 191.499 90.25 191.913C90.25 192.327 90.586 192.663 91 192.663H94.93L94.558 196.935C94.522 197.347 94.828 197.71 95.24 197.747L95.306 197.75C95.691 197.75 96.018 197.455 96.052 197.064L96.435 192.664H102.755L102.385 196.934C102.349 197.347 102.655 197.71 103.067 197.747L103.133 197.75C103.518 197.75 103.845 197.455 103.879 197.064L104.261 192.664H108.218C108.631 192.664 108.968 192.327 108.968 191.914C108.968 191.501 108.631 191.164 108.218 191.164H104.39L104.94 184.837H109C109.414 184.837 109.75 184.501 109.75 184.087C109.75 183.673 109.414 183.337 109 183.337ZM102.885 191.163H96.565L97.115 184.837H103.435L102.885 191.163Z" fill="white"/>
<path d="M22.58 183.35L12.475 177.897C12.178 177.737 11.821 177.737 11.525 177.897L1.42502 183.35C0.939018 183.614 0.758018 184.22 1.02002 184.706C1.20002 185.041 1.54502 185.231 1.90002 185.231C2.06002 185.231 2.22402 185.193 2.37502 185.111L3.10902 184.715L4.69902 195.965C4.91502 197.179 6.00902 198.027 7.35902 198.027H16.641C17.991 198.027 19.085 197.179 19.303 195.939L20.891 184.714L21.628 185.112C22.113 185.375 22.72 185.194 22.982 184.708C23.245 184.222 23.062 183.615 22.578 183.353L22.58 183.35ZM12 191.435C10.205 191.435 8.75002 189.98 8.75002 188.185C8.75002 186.39 10.205 184.935 12 184.935C13.795 184.935 15.25 186.39 15.25 188.185C15.25 189.98 13.795 191.435 12 191.435Z" fill="white"/>
<path d="M23.643 92.937C22.808 93.307 21.911 93.557 20.968 93.67C21.93 93.094 22.668 92.18 23.016 91.092C22.116 91.626 21.119 92.014 20.058 92.222C19.208 91.318 17.998 90.752 16.658 90.752C14.086 90.752 12 92.838 12 95.412C12 95.776 12.042 96.13 12.12 96.472C8.24701 96.277 4.81601 94.422 2.51801 91.604C2.11801 92.294 1.88801 93.094 1.88801 93.946C1.88801 95.562 2.71101 96.989 3.96001 97.824C3.19601 97.799 2.47801 97.59 1.85001 97.241V97.301C1.85001 99.558 3.45501 101.441 5.58701 101.869C5.19501 101.975 4.78401 102.031 4.36001 102.031C4.06001 102.031 3.76701 102.003 3.48301 101.949C4.07601 103.799 5.79601 105.147 7.83501 105.183C6.24001 106.433 4.23101 107.178 2.04901 107.178C1.67301 107.178 1.30201 107.156 0.937012 107.113C2.99901 108.436 5.44701 109.206 8.07701 109.206C16.647 109.206 21.332 102.108 21.332 95.952C21.332 95.752 21.327 95.55 21.318 95.35C22.228 94.692 23.018 93.873 23.641 92.94L23.643 92.937Z" fill="white"/>
<path d="M239.25 135.018H224.75C223.233 135.018 222 136.252 222 137.77V150.265C222 151.783 223.233 153.018 224.75 153.018H239.25C240.767 153.018 242 151.783 242 150.265V137.77C242 136.252 240.767 135.018 239.25 135.018ZM224.75 136.518H239.25C239.94 136.518 240.5 137.078 240.5 137.768V138.482L232.45 143.849C232.177 144.029 231.824 144.031 231.55 143.847L223.5 138.482V137.768C223.5 137.078 224.06 136.518 224.75 136.518ZM239.25 151.516H224.75C224.06 151.516 223.5 150.956 223.5 150.266V140.24L230.74 145.07C231.123 145.326 231.562 145.454 232 145.454C232.44 145.454 232.877 145.326 233.26 145.071L240.5 140.241V150.263C240.5 150.953 239.94 151.513 239.25 151.513V151.516Z" fill="white"/>
<path d="M151.9 155.5C151.743 155.5 151.588 155.45 151.458 155.356L144 149.928L136.542 155.358C136.314 155.522 136.012 155.548 135.76 155.418C135.51 155.291 135.35 155.033 135.35 154.751V137.6C135.35 136.36 136.36 135.35 137.6 135.35H150.398C151.638 135.35 152.648 136.36 152.648 137.6V154.75C152.648 155.032 152.49 155.29 152.238 155.418C152.132 155.473 152.015 155.5 151.898 155.5H151.9ZM144 148.25C144.155 148.25 144.31 148.298 144.44 148.394L151.15 153.277V137.6C151.15 137.188 150.813 136.85 150.4 136.85H137.6C137.187 136.85 136.85 137.188 136.85 137.6V153.277L143.56 148.394C143.69 148.298 143.845 148.25 144 148.25Z" fill="white"/>
<path d="M107.9 155.5C107.7 155.5 107.6 155.5 107.5 155.4L100 149.9L92.5 155.3C92.3 155.5 92 155.5 91.7 155.4C91.5 155.3 91.3 155 91.3 154.7V137.6C91.3 136.4 92.3 135.4 93.5 135.4H106.3C107.5 135.4 108.5 136.4 108.5 137.6V154.7C108.5 155 108.3 155.2 108.1 155.4C108.1 155.5 108 155.5 107.9 155.5Z" fill="white"/>
<path d="M63.75 134H48.25C47.013 134 46 135.013 46 136.25V151.75C46 152.987 47.013 154 48.25 154H63.75C64.987 154 66 152.987 66 151.75V136.25C66 135.013 64.987 134 63.75 134ZM55 148.75H51C50.586 148.75 50.25 148.414 50.25 148C50.25 147.586 50.586 147.25 51 147.25H55C55.414 147.25 55.75 147.586 55.75 148C55.75 148.414 55.414 148.75 55 148.75ZM61 144.75H51C50.586 144.75 50.25 144.414 50.25 144C50.25 143.586 50.586 143.25 51 143.25H61C61.414 143.25 61.75 143.586 61.75 144C61.75 144.414 61.414 144.75 61 144.75ZM61 140.75H51C50.586 140.75 50.25 140.414 50.25 140C50.25 139.586 50.586 139.25 51 139.25H61C61.414 139.25 61.75 139.586 61.75 140C61.75 140.414 61.414 140.75 61 140.75Z" fill="white"/>
<path d="M19.75 154H4.25C3.01 154 2 152.99 2 151.75V136.25C2 135.01 3.01 134 4.25 134H19.75C20.99 134 22 135.01 22 136.25V151.75C22 152.99 20.99 154 19.75 154ZM4.25 135.5C3.836 135.5 3.5 135.837 3.5 136.25V151.75C3.5 152.163 3.836 152.5 4.25 152.5H19.75C20.164 152.5 20.5 152.163 20.5 151.75V136.25C20.5 135.837 20.164 135.5 19.75 135.5H4.25Z" fill="white"/>
<path d="M17 140.64H7C6.586 140.64 6.25 140.303 6.25 139.89C6.25 139.477 6.586 139.14 7 139.14H17C17.414 139.14 17.75 139.475 17.75 139.89C17.75 140.305 17.414 140.64 17 140.64ZM17 144.75H7C6.586 144.75 6.25 144.414 6.25 144C6.25 143.586 6.586 143.25 7 143.25H17C17.414 143.25 17.75 143.586 17.75 144C17.75 144.414 17.414 144.75 17 144.75ZM12 148.86H7C6.586 148.86 6.25 148.525 6.25 148.11C6.25 147.695 6.586 147.36 7 147.36H12C12.414 147.36 12.75 147.697 12.75 148.11C12.75 148.523 12.414 148.86 12 148.86Z" fill="white"/>
<path d="M56.225 100.165C54.869 100.165 53.353 100.015 52.385 98.909C51.571 97.979 51.308 96.541 51.58 94.517C51.96 91.691 53.696 90.004 56.226 90.004C58.756 90.004 60.493 91.691 60.872 94.517C61.144 96.541 60.88 97.977 60.066 98.909C59.096 100.015 57.581 100.164 56.226 100.164L56.225 100.165ZM62.074 110.015H50.376C49.713 110.015 49.126 109.735 48.726 109.229C48.304 108.695 48.15 107.959 48.316 107.261C49.15 103.731 52.402 101.264 56.224 101.264C60.046 101.264 63.298 103.73 64.134 107.261C64.298 107.959 64.144 108.695 63.722 109.228C63.322 109.733 62.737 110.013 62.074 110.013V110.015Z" fill="white"/>
<path d="M100 99.816C101.355 99.816 102.872 99.666 103.84 98.56C104.654 97.63 104.918 96.192 104.646 94.168C104.266 91.343 102.529 89.656 100 89.656C97.471 89.656 95.734 91.343 95.354 94.17C95.082 96.192 95.346 97.63 96.16 98.56C97.128 99.667 98.645 99.816 100 99.816ZM96.84 94.368C97.002 93.168 97.627 91.156 100 91.156C102.373 91.156 102.998 93.169 103.16 94.368C103.367 95.918 103.217 96.995 102.71 97.573C102.255 98.093 101.444 98.316 100 98.316C98.556 98.316 97.745 98.093 97.29 97.573C96.783 96.995 96.633 95.917 96.84 94.368ZM108.28 107.236C107.403 103.71 103.998 101.246 100 101.246C96.002 101.246 92.597 103.71 91.72 107.236C91.548 107.928 91.692 108.636 92.115 109.176C92.523 109.696 93.155 109.996 93.848 109.996H106.152C106.845 109.996 107.477 109.696 107.885 109.176C108.309 108.636 108.452 107.929 108.279 107.236H108.28ZM106.704 108.252C106.578 108.412 106.388 108.498 106.152 108.498H93.848C93.613 108.498 93.422 108.413 93.296 108.252C93.159 108.078 93.116 107.84 93.176 107.598C93.886 104.743 96.693 102.748 100 102.748C103.307 102.748 106.114 104.742 106.824 107.598C106.884 107.84 106.841 108.078 106.704 108.252Z" fill="white"/>
<path d="M148.5 98.25C147.535 98.25 146.75 99.037 146.75 100C146.75 100.963 147.534 101.75 148.5 101.75C149.464 101.75 150.25 100.964 150.25 100C150.25 99.036 149.464 98.25 148.5 98.25ZM148.5 100.75C148.086 100.75 147.75 100.414 147.75 100C147.75 99.587 148.087 99.25 148.5 99.25C148.913 99.25 149.25 99.586 149.25 100C149.25 100.413 148.914 100.75 148.5 100.75ZM144 98.25C143.034 98.25 142.25 99.037 142.25 100C142.25 100.963 143.035 101.75 144 101.75C144.965 101.75 145.75 100.964 145.75 100C145.75 99.036 144.966 98.25 144 98.25ZM144 100.75C143.586 100.75 143.25 100.414 143.25 100C143.25 99.587 143.587 99.25 144 99.25C144.413 99.25 144.75 99.586 144.75 100C144.75 100.413 144.414 100.75 144 100.75ZM139.5 98.25C138.535 98.25 137.75 99.037 137.75 100C137.75 100.963 138.535 101.75 139.5 101.75C140.464 101.75 141.25 100.964 141.25 100C141.25 99.036 140.463 98.25 139.5 98.25ZM139.5 100.75C139.086 100.75 138.75 100.414 138.75 100C138.75 99.587 139.087 99.25 139.5 99.25C139.913 99.25 140.25 99.586 140.25 100C140.25 100.413 139.914 100.75 139.5 100.75Z" fill="white"/>
<path d="M144 110.75C138.072 110.75 133.25 105.928 133.25 100C133.25 94.072 138.072 89.25 144 89.25C149.928 89.25 154.75 94.072 154.75 100C154.75 105.928 149.928 110.75 144 110.75ZM144 90.75C138.9 90.75 134.75 94.9 134.75 100C134.75 105.1 138.9 109.25 144 109.25C149.1 109.25 153.25 105.1 153.25 100C153.25 94.9 149.1 90.75 144 90.75Z" fill="white"/>
<path d="M187.55 144.082C187.823 144.264 188.177 144.264 188.45 144.082L198 137.716V137.5C198 136.26 196.99 135.25 195.75 135.25H180.25C179.01 135.25 178 136.26 178 137.5V137.697L187.55 144.082Z" fill="white"/>
<path d="M189.26 145.295C188.877 145.55 188.44 145.677 188 145.677C187.56 145.677 187.123 145.55 186.74 145.294L178 139.452V151.122C178 152.362 179.01 153.372 180.25 153.372H195.75C196.99 153.372 198 152.362 198 151.122V139.47L189.26 145.293V145.295Z" fill="white"/>
<path d="M240.207 52.147C239.817 51.757 239.184 51.757 238.793 52.147L232 58.94L225.207 52.147C224.817 51.757 224.184 51.757 223.793 52.147C223.403 52.537 223.403 53.17 223.793 53.561L231.293 61.061C231.488 61.257 231.743 61.355 232 61.355C232.257 61.355 232.512 61.257 232.707 61.062L240.207 53.562C240.597 53.172 240.597 52.54 240.207 52.149V52.147Z" fill="white"/>
<path d="M151.75 46H136.25C135.01 46 134 47.01 134 48.25V63.75C134 64.99 135.01 66 136.25 66H151.75C152.99 66 154 64.99 154 63.75V48.25C154 47.01 152.99 46 151.75 46ZM136.25 47.5H151.75C152.163 47.5 152.5 47.837 152.5 48.25V57.926L148.642 54.068C148.502 53.928 148.312 53.848 148.112 53.848H148.109C147.909 53.848 147.716 53.928 147.577 54.072L143.26 58.456L141.447 56.65C141.307 56.51 141.117 56.43 140.917 56.43C140.724 56.4 140.522 56.51 140.382 56.657L135.5 61.642V48.25C135.5 47.837 135.837 47.5 136.25 47.5ZM135.506 63.78L140.924 58.246L147.206 64.5H136.25C135.848 64.5 135.523 64.178 135.506 63.78ZM151.75 64.5H149.33L144.323 59.513L148.115 55.663L152.5 60.047V63.75C152.5 64.163 152.163 64.5 151.75 64.5Z" fill="white"/>
<path d="M140.868 53.851C141.72 53.851 142.41 53.1607 142.41 52.309C142.41 51.4574 141.72 50.767 140.868 50.767C140.016 50.767 139.326 51.4574 139.326 52.309C139.326 53.1607 140.016 53.851 140.868 53.851Z" fill="white"/>
<path d="M107 54.5V52.8H102.6V59.2H104.3V57.2H106.3V55.5H104.3V54.5H107ZM99.7 52.8H101.4V59.2H99.7V52.8ZM96.1 54.4C96.5 54.4 97 54.6 97.3 54.9L98.5 53.9C97.9 53.2 97 52.8 96.1 52.8C94.3 52.8 92.9 54.2 92.9 56C92.9 57.8 94.3 59.2 96.1 59.2C97.1 59.2 97.9 58.8 98.5 58.1V55.6H95.7V56.8H96.9V57.4C96.7 57.5 96.4 57.6 96.1 57.6C95.2 57.6 94.5 56.9 94.5 56C94.5 55.2 95.2 54.4 96.1 54.4Z" fill="white"/>
<path d="M108.5 46.02H91.5C90.26 46.02 89.25 47.027 89.25 48.267V63.774C89.25 65.012 90.26 66.02 91.5 66.02H108.5C109.74 66.02 110.75 65.012 110.75 63.774V48.267C110.75 47.027 109.74 46.02 108.5 46.02ZM109.25 63.774C109.25 64.184 108.914 64.52 108.5 64.52H91.5C91.086 64.52 90.75 64.184 90.75 63.774V48.267C90.75 47.855 91.086 47.52 91.5 47.52H108.5C108.914 47.52 109.25 47.855 109.25 48.267V63.774Z" fill="white"/>
<path d="M64.222 53.16H62.888C62.903 53.07 62.916 52.978 62.916 52.883V50.57C62.916 49.59 62.119 48.793 61.138 48.793H47.5V47.358C47.5 46.944 47.164 46.608 46.75 46.608C46.336 46.608 46 46.944 46 47.358V64.83C46 65.245 46.336 65.58 46.75 65.58C47.164 65.58 47.5 65.245 47.5 64.83V63.396H58.056C59.036 63.396 59.834 62.599 59.834 61.619V59.306C59.834 59.211 59.82 59.119 59.806 59.028H64.223C65.203 59.028 66.001 58.23 66.001 57.25V54.94C66.001 53.957 65.204 53.16 64.223 53.16H64.222ZM61.14 50.293C61.292 50.293 61.417 50.417 61.417 50.57V52.88C61.417 53.034 61.292 53.16 61.139 53.16H47.5V50.29H61.14V50.293ZM58.333 59.307V61.619C58.333 61.772 58.208 61.896 58.055 61.896H47.5V59.028H58.056C58.209 59.028 58.333 59.154 58.333 59.308V59.307ZM64.5 57.25C64.5 57.403 64.375 57.527 64.222 57.527H47.5V54.66H64.222C64.375 54.66 64.5 54.784 64.5 54.937V57.25Z" fill="white"/>
<path d="M12 66.75C6.072 66.75 1.25 61.928 1.25 56C1.25 50.072 6.072 45.25 12 45.25C17.928 45.25 22.75 50.072 22.75 56C22.75 61.928 17.928 66.75 12 66.75ZM12 46.75C6.9 46.75 2.75 50.9 2.75 56C2.75 61.1 6.9 65.25 12 65.25C17.1 65.25 21.25 61.1 21.25 56C21.25 50.9 17.1 46.75 12 46.75Z" fill="white"/>
<path d="M12 61.115C10.108 61.115 8.36701 60.165 7.34401 58.571C7.12001 58.223 7.22101 57.761 7.57001 57.536C7.91801 57.31 8.38201 57.412 8.60601 57.762C9.35301 58.924 10.622 59.617 12.001 59.617C13.38 59.617 14.649 58.924 15.397 57.763C15.621 57.413 16.085 57.313 16.433 57.538C16.783 57.762 16.883 58.226 16.659 58.574C15.634 60.168 13.893 61.119 12.001 61.119L12 61.115Z" fill="white"/>
<path d="M14.738 54.936C15.5543 54.936 16.216 54.2743 16.216 53.458C16.216 52.6417 15.5543 51.98 14.738 51.98C13.9217 51.98 13.26 52.6417 13.26 53.458C13.26 54.2743 13.9217 54.936 14.738 54.936Z" fill="white"/>
<path d="M9.262 54.936C10.0783 54.936 10.74 54.2743 10.74 53.458C10.74 52.6417 10.0783 51.98 9.262 51.98C8.44572 51.98 7.784 52.6417 7.784 53.458C7.784 54.2743 8.44572 54.936 9.262 54.936Z" fill="white"/>
<path d="M198.772 54.506L193.154 52.314L190.994 45.814C190.892 45.507 190.604 45.3 190.282 45.3C189.96 45.3 189.672 45.507 189.57 45.813L187.41 52.313L181.79 54.505C181.503 54.617 181.313 54.895 181.313 55.205C181.313 55.515 181.503 55.79 181.791 55.903L187.411 58.095L189.571 64.595C189.673 64.901 189.961 65.108 190.283 65.108C190.605 65.108 190.893 64.901 190.995 64.595L193.155 58.095L198.775 55.903C199.062 55.791 199.252 55.513 199.252 55.203C199.252 54.893 199.062 54.618 198.774 54.506H198.772ZM192.282 56.826C192.074 56.906 191.912 57.076 191.842 57.286L190.282 61.981L188.722 57.288C188.652 57.078 188.492 56.908 188.284 56.826L184.129 55.206L188.283 53.584C188.491 53.504 188.653 53.334 188.723 53.122L190.283 48.429L191.843 53.123C191.913 53.335 192.073 53.505 192.281 53.586L196.436 55.206L192.281 56.828L192.282 56.826ZM182.663 47.812H180.783V46.05C180.783 45.636 180.446 45.3 180.033 45.3C179.62 45.3 179.283 45.636 179.283 46.05V47.812H177.5C177.086 47.812 176.75 48.148 176.75 48.562C176.75 48.976 177.086 49.312 177.5 49.312H179.282V51.074C179.282 51.488 179.618 51.824 180.032 51.824C180.446 51.824 180.782 51.488 180.782 51.074V49.312H182.662C183.077 49.312 183.412 48.976 183.412 48.562C183.412 48.148 183.077 47.812 182.662 47.812H182.663ZM185.198 63.434H184.098V62.418C184.098 62.004 183.763 61.668 183.348 61.668C182.933 61.668 182.598 62.004 182.598 62.418V63.434H181.57C181.156 63.434 180.82 63.77 180.82 64.184C180.82 64.598 181.156 64.934 181.57 64.934H182.6V65.95C182.6 66.364 182.935 66.7 183.35 66.7C183.765 66.7 184.1 66.364 184.1 65.95V64.934H185.198C185.612 64.934 185.948 64.598 185.948 64.184C185.948 63.77 185.612 63.434 185.198 63.434Z" fill="white"/>
<path d="M14.046 2.24199L9.89801 2.23199H9.89601C5.52201 2.23199 2.09601 5.65899 2.09601 10.034C2.09601 14.132 5.28201 17.24 9.56101 17.404V21.232C9.56101 21.34 9.60501 21.518 9.68101 21.635C9.82301 21.86 10.065 21.982 10.313 21.982C10.451 21.982 10.59 21.944 10.715 21.864C10.979 21.696 17.188 17.724 18.803 16.358C20.705 14.748 21.843 12.388 21.846 10.046V10.029C21.84 5.66199 18.416 2.24199 14.046 2.24099V2.24199ZM17.833 15.214C16.699 16.174 12.971 18.619 11.061 19.857V16.67C11.061 16.256 10.726 15.92 10.311 15.92H9.91501C6.25501 15.92 3.59701 13.444 3.59701 10.034C3.59701 6.49999 6.36501 3.73199 9.89701 3.73199L14.044 3.74199H14.046C17.578 3.74199 20.346 6.50799 20.348 10.038C20.345 11.948 19.406 13.882 17.834 15.214H17.833Z" fill="white"/>
<path d="M67.77 15.67C67.478 15.377 67.003 15.377 66.71 15.67L64.49 17.89V7.64998C64.49 5.58198 62.807 3.89998 60.74 3.89998H54.89C54.476 3.89998 54.14 4.23598 54.14 4.64998C54.14 5.06398 54.476 5.39998 54.89 5.39998H60.74C61.98 5.39998 62.99 6.40998 62.99 7.64998V17.89L60.77 15.67C60.477 15.377 60.002 15.377 59.71 15.67C59.418 15.963 59.416 16.438 59.71 16.73L63.21 20.23C63.355 20.377 63.547 20.45 63.74 20.45C63.933 20.45 64.123 20.378 64.27 20.23L67.77 16.73C68.064 16.438 68.064 15.963 67.77 15.67ZM57.11 18.95H51.26C50.02 18.95 49.01 17.94 49.01 16.7V6.45998L51.23 8.67998C51.378 8.82698 51.57 8.89997 51.762 8.89997C51.954 8.89997 52.146 8.82698 52.292 8.67998C52.585 8.38698 52.585 7.91197 52.292 7.61998L48.792 4.11998C48.499 3.82598 48.024 3.82598 47.732 4.11998L44.232 7.61998C43.938 7.91197 43.938 8.38698 44.232 8.67998C44.526 8.97298 44.999 8.97298 45.292 8.67998L47.512 6.45998V16.7C47.512 18.768 49.195 20.45 51.262 20.45H57.112C57.526 20.45 57.862 20.114 57.862 19.7C57.862 19.286 57.525 18.95 57.112 18.95H57.11Z" fill="white"/>
<path d="M100 21.638H99.986C97.403 21.59 89.95 14.856 89.95 8.478C89.95 5.414 92.475 2.724 95.353 2.724C97.643 2.724 99.183 4.304 99.999 5.454C100.813 4.306 102.353 2.724 104.644 2.724C107.524 2.724 110.048 5.414 110.048 8.479C110.048 14.855 102.594 21.589 100.011 21.636H100V21.638ZM95.354 4.225C93.274 4.225 91.451 6.213 91.451 8.48C91.451 14.22 98.485 20.076 100.001 20.138C101.519 20.076 108.551 14.221 108.551 8.48C108.551 6.213 106.728 4.225 104.648 4.225C102.12 4.225 100.708 7.161 100.696 7.19C100.466 7.752 99.54 7.752 99.309 7.19C99.295 7.16 97.884 4.225 95.355 4.225H95.354Z" fill="white"/>
<path d="M149.53 7.46999L144.53 2.46999C144.237 2.17699 143.762 2.17699 143.47 2.46999L138.47 7.46999C138.176 7.76299 138.176 8.23799 138.47 8.52999C138.764 8.82199 139.237 8.82399 139.53 8.52999L143.25 4.80999V15C143.25 15.414 143.586 15.75 144 15.75C144.414 15.75 144.75 15.414 144.75 15V4.80999L148.47 8.52999C148.616 8.67699 148.808 8.74999 149 8.74999C149.192 8.74999 149.384 8.67799 149.53 8.52999C149.823 8.23699 149.823 7.76299 149.53 7.46999Z" fill="white"/>
<path d="M151.708 21.944H136.292C135.028 21.944 134 20.916 134 19.652V14C134 13.586 134.336 13.25 134.75 13.25C135.164 13.25 135.5 13.586 135.5 14V19.652C135.5 20.089 135.855 20.444 136.292 20.444H151.708C152.145 20.444 152.5 20.089 152.5 19.652V14C152.5 13.586 152.836 13.25 153.25 13.25C153.664 13.25 154 13.586 154 14V19.652C154 20.916 152.972 21.944 151.708 21.944Z" fill="white"/>
<path d="M197.53 108.47L193.87 104.81C195.195 103.24 196 101.214 196 99C196 94.03 191.97 90 187 90C182.03 90 178 94.03 178 99C178 103.97 182.03 108 187 108C189.215 108 191.24 107.196 192.808 105.87L196.468 109.53C196.615 109.676 196.808 109.75 196.998 109.75C197.188 109.75 197.383 109.677 197.528 109.53C197.823 109.237 197.823 108.763 197.53 108.47ZM179.5 99C179.5 94.865 182.865 91.5 187 91.5C191.135 91.5 194.5 94.865 194.5 99C194.5 103.135 191.135 106.5 187 106.5C182.865 106.5 179.5 103.135 179.5 99Z" fill="white"/>
<path d="M232 96.21C229.91 96.21 228.21 97.91 228.21 100C228.21 102.09 229.91 103.79 232 103.79C234.09 103.79 235.79 102.09 235.79 100C235.79 97.91 234.09 96.21 232 96.21ZM232 102.29C230.738 102.29 229.71 101.264 229.71 100C229.71 98.736 230.74 97.71 232 97.71C233.26 97.71 234.29 98.736 234.29 100C234.29 101.264 233.262 102.29 232 102.29Z" fill="white"/>
<path d="M232.36 110.375H231.638C230.455 110.375 229.484 109.487 229.376 108.311L229.362 108.164C229.337 107.877 229.155 107.631 228.89 107.52C228.604 107.4 228.308 107.455 228.092 107.635L227.976 107.732C227.108 108.457 225.723 108.395 224.916 107.592L224.406 107.082C223.57 106.242 223.51 104.928 224.266 104.022L224.364 103.904C224.55 103.682 224.594 103.381 224.486 103.117C224.376 102.845 224.128 102.663 223.84 102.637L223.69 102.623C222.51 102.516 221.623 101.543 221.623 100.361V99.639C221.623 98.456 222.511 97.485 223.687 97.377L223.843 97.363C224.128 97.338 224.373 97.156 224.485 96.89C224.595 96.62 224.55 96.317 224.365 96.095L224.271 95.979C223.514 95.071 223.573 93.756 224.408 92.919L224.92 92.407C225.724 91.603 227.108 91.542 227.98 92.267L228.096 92.365C228.314 92.549 228.624 92.595 228.886 92.487C229.156 92.375 229.338 92.129 229.363 91.844L229.377 91.691C229.484 90.511 230.457 89.625 231.639 89.625H232.361C233.544 89.625 234.515 90.513 234.623 91.689L234.637 91.845C234.662 92.13 234.843 92.375 235.109 92.485C235.386 92.602 235.689 92.547 235.903 92.368L236.023 92.266C236.89 91.543 238.277 91.604 239.083 92.406L239.593 92.918C240.429 93.756 240.489 95.071 239.733 95.978L239.633 96.096C239.445 96.316 239.399 96.618 239.51 96.884C239.622 97.154 239.87 97.334 240.156 97.362L240.308 97.376C241.488 97.483 242.375 98.456 242.375 99.638V100.361C242.375 101.544 241.487 102.515 240.311 102.623L240.156 102.637C239.872 102.661 239.626 102.842 239.516 103.107C239.403 103.379 239.449 103.681 239.633 103.902L239.733 104.022C240.489 104.927 240.429 106.242 239.593 107.082L239.083 107.592C238.276 108.396 236.893 108.456 236.023 107.732L235.908 107.636C235.691 107.453 235.378 107.406 235.118 107.514C234.845 107.628 234.663 107.874 234.638 108.16L234.624 108.31C234.517 109.483 233.544 110.37 232.362 110.37L232.36 110.375ZM228.587 105.955C228.887 105.955 229.18 106.015 229.457 106.13C230.247 106.458 230.781 107.184 230.857 108.026L230.871 108.173C230.908 108.573 231.238 108.873 231.641 108.873H232.363C232.763 108.873 233.093 108.573 233.131 108.173L233.145 108.025C233.221 107.183 233.755 106.458 234.537 106.133C235.33 105.803 236.233 105.951 236.87 106.483L236.983 106.577C237.161 106.725 237.349 106.757 237.476 106.757C237.682 106.757 237.876 106.677 238.022 106.53L238.532 106.02C238.816 105.736 238.837 105.29 238.58 104.982L238.48 104.862C237.938 104.212 237.803 103.322 238.128 102.539C238.454 101.749 239.18 101.219 240.022 101.142L240.177 101.128C240.574 101.091 240.877 100.761 240.877 100.358V99.636C240.877 99.236 240.574 98.906 240.175 98.868L240.023 98.854C239.177 98.776 238.453 98.244 238.128 97.461C237.802 96.673 237.938 95.783 238.481 95.134L238.581 95.016C238.838 94.706 238.817 94.26 238.533 93.976L238.023 93.466C237.877 93.319 237.683 93.239 237.477 93.239C237.35 93.239 237.162 93.271 236.985 93.419L236.865 93.519C236.231 94.047 235.315 94.189 234.543 93.873C233.755 93.546 233.223 92.821 233.146 91.977L233.132 91.822C233.097 91.425 232.767 91.122 232.365 91.122H231.642C231.242 91.122 230.912 91.425 230.874 91.824L230.86 91.976C230.784 92.819 230.252 93.544 229.47 93.869C228.683 94.195 227.777 94.052 227.14 93.519L227.022 93.423C226.842 93.273 226.654 93.243 226.527 93.243C226.321 93.243 226.127 93.323 225.981 93.469L225.469 93.979C225.187 94.263 225.166 94.709 225.423 95.017L225.523 95.135C226.063 95.788 226.2 96.679 225.875 97.46C225.548 98.248 224.823 98.78 223.98 98.857L223.824 98.871C223.427 98.908 223.124 99.238 223.124 99.641V100.363C223.124 100.763 223.427 101.093 223.826 101.131L223.976 101.145C224.824 101.223 225.549 101.757 225.873 102.541C226.198 103.327 226.063 104.216 225.52 104.866L225.424 104.981C225.164 105.291 225.186 105.737 225.47 106.021L225.98 106.531C226.126 106.678 226.32 106.758 226.526 106.758C226.653 106.758 226.841 106.728 227.018 106.578L227.134 106.482C227.54 106.146 228.057 105.958 228.587 105.958V105.955Z" fill="white"/>
</svg>
